<svg width="260" height="88" viewBox="0 0 260 88" fill="none" xmlns="http://www.w3.org/2000/svg">
<path d="M235.569 56.5023C234.269 58.9889 230.587 60.6687 226.437 60.6687H9.61637C4.30541 60.6687 0 57.9525 0 54.6018V6.06687C0 2.71624 4.30541 0 9.61637 0H250.135C256.513 0 261.124 3.84562 259.388 7.7176L249.252 30.3343L235.569 56.5023Z" fill="white"/>
<path d="M233.944 31.1302C232.653 28.6436 228.997 26.9639 224.875 26.9639H9.55005C4.27572 26.9639 0 29.68 0 33.0308V81.5657C0 84.9163 4.27572 87.6326 9.55005 87.6326H248.41C254.744 87.6326 259.323 83.7869 257.6 79.915L247.533 57.2982L233.944 31.1302Z" fill="white"/>
<path d="M54.208 52.5776V52.0776V33.5366V33.0366H54.708H59.4339C61.4062 33.0366 63.0939 33.4217 64.47 34.2225C65.8425 35.0133 66.8743 36.1528 67.5605 37.6259C68.2429 39.0828 68.5742 40.7997 68.5742 42.7611C68.5742 44.7382 68.2387 46.4705 67.5483 47.9428L54.208 52.5776ZM54.208 52.5776H54.708M54.208 52.5776H54.708M54.708 52.5776H59.0997M54.708 52.5776H59.0997M84.5673 36.8805C83.8034 36.7422 83.1272 36.673 82.5385 36.673C81.6154 36.673 80.6766 36.7959 79.7219 37.0419L84.5673 36.8805ZM84.5673 36.8805C85.3391 37.0112 86.0829 37.2841 86.7989 37.6992M84.5673 36.8805L86.7989 37.6992M86.7989 37.6992C87.523 38.1142 88.1235 38.7407 88.6009 39.5786C89.0783 40.4164 89.3171 41.5387 89.3171 42.9455V54.1143L86.7989 37.6992ZM86.5005 52.9436V54.1143V52.9436ZM86.5005 52.9436C86.6199 52.7745 86.7218 52.6061 86.8052 52.4383L86.5005 52.287M86.5005 52.9436V52.287M86.5005 52.287V52.2159H86.3573H86.0005V52.7801C85.8365 52.9958 85.6372 53.219 85.4026 53.4497L86.5005 52.287ZM59.0997 52.5776C61.18 52.5776 62.9463 52.1901 64.3706 51.3826M59.0997 52.5776L64.3706 51.3826M64.3706 51.3826C65.79 50.5779 66.8522 49.4275 67.5482 47.9428L64.3706 51.3826ZM59.2907 54.1143H52.2482V31.5H59.6248C61.9293 31.5 63.8699 31.9592 65.4668 32.8544L65.4683 32.8552C67.0661 33.7436 68.2895 35.0186 69.1445 36.6928L69.1449 36.6936C70.0002 38.3607 70.4385 40.3772 70.4385 42.7611C70.4385 45.1598 69.9963 47.1959 69.1328 48.8865C68.2712 50.5657 67.0218 51.8527 65.3756 52.7575C63.7313 53.6537 61.7099 54.1143 59.2907 54.1143ZM77.6258 41.1365L75.8832 40.5352C76.2952 39.7624 76.8019 39.1583 77.3973 38.7096L77.3978 38.7092C78.1498 38.1409 78.9643 37.7482 79.8439 37.5267L79.8466 37.5261C80.7634 37.2899 81.6603 37.173 82.5385 37.173C83.0897 37.173 83.735 37.2379 84.4782 37.3725L84.4782 37.3725L84.4838 37.3735C85.1933 37.4936 85.8809 37.7449 86.5481 38.1318L86.5503 38.133C87.1855 38.497 87.7263 39.0535 88.1665 39.8261C88.5856 40.5617 88.8171 41.5884 88.8171 42.9455V54.1143H87.0005V52.2159V51.7159H86.5005H86.3573H86.0474L85.9095 51.9935C85.7519 52.311 85.4744 52.6779 85.052 53.0932L85.052 53.0933C84.6631 53.4758 84.1293 53.8169 83.4326 54.1064C82.7699 54.3818 81.9361 54.5294 80.9154 54.5294C79.8163 54.5294 78.8332 54.3298 77.9584 53.9395C77.0899 53.5443 76.4116 52.9831 75.9095 52.2559C75.4188 51.5376 75.1619 50.6563 75.1619 49.587C75.1619 48.6369 75.3558 47.919 75.7005 47.3938L75.702 47.3915C76.0674 46.8278 76.5548 46.3864 77.1727 46.0637C77.8209 45.7254 78.5412 45.4709 79.3363 45.3027L79.3397 45.3019C80.168 45.1206 81.0004 44.9772 81.8366 44.8714C82.9485 44.7334 83.8469 44.63 84.5335 44.5615L84.5383 44.5609C85.2529 44.4825 85.8435 44.3478 86.2517 44.1217C86.7701 43.8398 87.0005 43.3417 87.0005 42.7611V42.6687C87.0005 41.4345 86.6483 40.4081 85.8848 39.6605C85.1198 38.9037 84.003 38.5712 82.6339 38.5712C81.2248 38.5712 80.0518 38.8687 79.1727 39.5235C78.5106 40.0167 77.9882 40.5527 77.6258 41.1365ZM88.8171 54.6143H87.0005H88.8171ZM85.9966 45.4615C85.9006 45.5079 85.7641 45.5588 85.5794 45.6114C85.2036 45.7129 84.7619 45.8053 84.252 45.8875C83.7409 45.9634 83.2416 46.0317 82.7543 46.0925C82.2695 46.1464 81.874 46.1927 81.5688 46.2313C80.8093 46.3272 80.0945 46.4832 79.4255 46.7012C78.7316 46.9221 78.1463 47.2654 77.6899 47.7423L77.6896 47.7427C77.198 48.2573 76.9783 48.9387 76.9783 49.7253C76.9783 50.8209 77.4102 51.6996 78.2863 52.2857L78.2863 52.2857L78.2915 52.2891C79.1248 52.8316 80.1535 53.0849 81.3451 53.0849C82.5202 53.0849 83.5472 52.862 84.4026 52.3888C85.2418 51.9289 85.8931 51.3236 86.3345 50.5675C86.7752 49.8261 87.0005 49.0356 87.0005 48.2033V45.7127V44.3663L86.1218 45.3862C86.1222 45.3858 86.1221 45.3859 86.1214 45.3865C86.1167 45.3907 86.0847 45.419 85.9966 45.4615ZM96.7741 43.4067V54.1143H94.9577V37.4035H96.6787V39.5786V40.0786H97.1787H97.3696H97.714L97.8367 39.7568C98.1282 38.9927 98.6558 38.3639 99.4482 37.8697L99.4483 37.8697C100.239 37.3767 101.132 37.1269 102.143 37.1269C102.345 37.1269 102.599 37.1305 102.906 37.1383L102.907 37.1383C102.984 37.1402 103.056 37.1423 103.123 37.1447V38.8532C103.096 38.8494 103.068 38.8457 103.04 38.8418C102.679 38.784 102.3 38.7558 101.905 38.7558C100.945 38.7558 100.069 38.9507 99.2893 39.3529C98.522 39.7451 97.9056 40.2958 97.4504 41.003L97.4494 41.0045C96.9962 41.714 96.7741 42.5201 96.7741 43.4067ZM109.087 48.1643L109.103 49.2618L109.278 49.1049V54.1143H107.462V31.5H109.278V44.2904H109.032L109.04 44.7975L109.087 48.1643ZM118.337 37.4035H120.39L113.913 43.7312L113.84 43.6431L113.501 43.2287L113.111 43.5964L111.106 45.4875L110.767 45.807L111.061 46.1669L110.278 46.8677V45.2904H110.317L110.463 45.1469L118.337 37.4035ZM113.421 45.6093L113.831 45.2089L121.133 54.1143H118.847L112.44 46.2744L113.024 45.7516H113.072H113.276L113.421 45.6093Z" fill="#FF6C00" stroke="#FF6C00"/>
<path d="M31.6159 29.2106C31.6181 29.2032 31.6201 29.1967 31.6219 29.191C31.6408 29.1672 31.6587 29.1555 31.6718 29.1492C31.6908 29.1402 31.7137 29.1361 31.7399 29.1397C31.7861 29.1461 31.8572 29.1802 31.901 29.2845C31.9019 29.2964 31.9035 29.3242 31.902 29.3736C31.8989 29.4741 31.8846 29.6257 31.8525 29.8487C31.7885 30.2932 31.6606 30.9743 31.4431 32.0049C31.0086 34.0631 30.2254 37.4738 28.909 43.0836L28.9088 43.0844C28.0374 46.8264 27.2184 50.283 26.6021 52.8424C26.2938 54.1222 26.0365 55.1768 25.8488 55.9303C25.7548 56.3072 25.6786 56.6075 25.6224 56.8223C25.5942 56.93 25.5714 57.0143 25.5543 57.0754C25.5454 57.107 25.5392 57.1278 25.5354 57.1406C25.4885 57.2243 25.4347 57.2849 25.3876 57.3218C25.3425 57.3571 25.3174 57.3608 25.3154 57.3611C25.2832 57.3611 25.2572 57.3607 25.2362 57.3601C25.2289 57.3005 25.224 57.2048 25.2307 57.0579C25.2416 56.8192 25.2805 56.4873 25.3566 56.0264C25.6625 54.1732 26.5239 50.4894 28.2439 43.1454L28.2441 43.1449C29.1242 39.3674 29.9518 35.8934 30.5724 33.3434C30.8828 32.0682 31.141 31.0253 31.328 30.2914C31.4216 29.9242 31.4969 29.6365 31.5516 29.4365C31.579 29.3361 31.6004 29.2611 31.6159 29.2106ZM31.6312 29.1628C31.6312 29.1627 31.6312 29.1626 31.6313 29.1625L31.6312 29.1628Z" fill="#FF6C00" stroke="#F86800"/>
<path d="M17.8809 37.2801C15.144 39.7517 13.8017 41.13 13.6448 41.5578C13.3484 42.4609 13.3833 44.0057 13.7145 44.7424C13.8714 45.0989 15.7716 47.0239 17.9682 49.044C21.2804 52.0859 22.0125 52.6801 22.3787 52.5376C22.8668 52.3712 23.1283 51.6581 22.9016 51.0878C22.8146 50.8977 21.019 49.139 18.927 47.214C15.7542 44.3383 15.0743 43.6255 15.0394 43.1025C14.9871 42.5559 15.3532 42.1757 18.9095 38.9437C21.0712 36.9948 22.8843 35.2124 22.9366 34.9986C23.0935 34.3807 22.7099 33.6201 22.274 33.6201C22.065 33.6201 20.0775 35.26 17.8809 37.2801Z" fill="#F86800"/>
<path d="M34.6826 34.836C34.6762 34.828 34.6707 34.821 34.6658 34.8148C34.6611 34.7725 34.6596 34.7068 34.6691 34.6188C34.6819 34.5014 34.7107 34.3782 34.7473 34.2758C34.7643 34.2364 34.7951 34.1931 34.8325 34.1586C34.8952 34.1988 34.9764 34.255 35.0764 34.3286C35.3291 34.5147 35.6684 34.7867 36.0692 35.1226C36.8689 35.7927 37.8904 36.6978 38.9069 37.6306C39.9234 38.5632 40.93 39.519 41.7001 40.2899C42.0858 40.6759 42.408 41.0114 42.6414 41.2725C42.7584 41.4034 42.8487 41.5106 42.912 41.593C42.9694 41.6677 42.9868 41.6995 42.9875 41.6991C42.9875 41.6991 42.9875 41.699 42.9874 41.6988C43.1192 42.0446 43.1943 42.5878 43.1882 43.1566C43.182 43.7344 43.093 44.2469 42.9613 44.5341L42.9613 44.534L42.9606 44.5355C42.961 44.5346 42.9612 44.5341 42.9611 44.5341C42.9605 44.5337 42.9425 44.5641 42.8852 44.6366C42.8227 44.7155 42.7342 44.8191 42.6197 44.9462C42.3913 45.1998 42.0746 45.5305 41.6905 45.9169C40.9235 46.6887 39.9007 47.6694 38.8069 48.6754C37.1649 50.1756 36.1676 51.0657 35.5368 51.5666C35.2186 51.8192 35.0188 51.9523 34.8918 52.0163C34.8749 52.0248 34.8607 52.0314 34.849 52.0365C34.7985 51.9981 34.7362 51.9238 34.6912 51.797C34.6369 51.6441 34.6304 51.4701 34.6767 51.3195C34.6863 51.308 34.6987 51.2935 34.7143 51.2757C34.7686 51.2139 34.8481 51.1283 34.9526 51.0197C35.1607 50.8034 35.4545 50.5097 35.8135 50.1593C36.5304 49.4595 37.498 48.5425 38.5405 47.5832C40.1226 46.1492 41.1005 45.2391 41.6869 44.6198C42.243 44.0323 42.5554 43.6039 42.5893 43.1434C42.6091 42.9255 42.583 42.7047 42.4544 42.4507C42.3388 42.2225 42.1468 41.9807 41.8746 41.689C41.3274 41.1027 40.3274 40.1827 38.557 38.5737L38.5556 38.5723C37.4787 37.6016 36.4903 36.6736 35.7663 35.9635C35.4038 35.6079 35.1111 35.3105 34.9077 35.0912C34.8054 34.9809 34.7308 34.8958 34.6826 34.836ZM34.8044 52.0524C34.8044 52.0524 34.805 52.0523 34.8061 52.0521L34.8044 52.0524ZM34.8944 34.1153C34.8944 34.1153 34.8942 34.1154 34.8936 34.1156L34.8944 34.1153ZM34.7329 34.1004C34.7259 34.0978 34.7247 34.0968 34.7303 34.0992C34.7308 34.0995 34.7317 34.0999 34.7329 34.1004ZM34.6528 51.3499C34.6528 51.3499 34.6537 51.3485 34.656 51.3455C34.6541 51.3483 34.6529 51.3498 34.6528 51.3499ZM34.6422 34.7828C34.6419 34.7823 34.6416 34.7818 34.6413 34.7814C34.6357 34.7729 34.6372 34.7739 34.6422 34.7828Z" fill="#FF6C00" stroke="#FF6C00"/>
<path d="M132.566 54.1662V30.5519H141.11C142.813 30.5519 144.217 30.8363 145.323 31.4052C146.429 31.9663 147.253 32.7235 147.794 33.6767C148.335 34.6221 148.605 35.6715 148.605 36.8245C148.605 37.8392 148.418 38.677 148.044 39.3381C147.678 39.9992 147.193 40.5218 146.588 40.9062C145.992 41.2905 145.343 41.575 144.643 41.7595V41.9901C145.391 42.0362 146.143 42.2899 146.899 42.7512C147.654 43.2122 148.287 43.8733 148.796 44.7342C149.305 45.5952 149.56 46.6483 149.56 47.8937C149.56 49.0774 149.281 50.1421 148.725 51.0876C148.168 52.0331 147.288 52.7825 146.087 53.3359C144.886 53.8894 143.322 54.1662 141.397 54.1662H132.566ZM135.525 51.6295H141.397C143.33 51.6295 144.703 51.2683 145.514 50.5457C146.334 49.8154 146.743 48.9314 146.743 47.8937C146.743 47.0941 146.533 46.3563 146.111 45.6798C145.689 44.9956 145.089 44.45 144.309 44.0425C143.529 43.6274 142.606 43.4199 141.54 43.4199H135.525V51.6295ZM135.525 40.9293H141.015C141.906 40.9293 142.71 40.7601 143.426 40.422C144.15 40.0838 144.723 39.6071 145.144 38.9922C145.574 38.3772 145.789 37.6546 145.789 36.8245C145.789 35.7868 145.415 34.9065 144.667 34.1841C143.919 33.4538 142.734 33.0885 141.11 33.0885H135.525V40.9293ZM165.594 46.9251V36.4555H168.41V54.1662H165.594V51.1683H165.402C164.974 52.0677 164.305 52.8325 163.397 53.4629C162.49 54.0855 161.346 54.3967 159.961 54.3967C158.815 54.3967 157.797 54.1547 156.905 53.6704C156.014 53.1785 155.314 52.4404 154.805 51.4566C154.296 50.465 154.041 49.2159 154.041 47.7091V36.4555H156.858V47.5247C156.858 48.816 157.232 49.8461 157.98 50.6148C158.734 51.3835 159.697 51.7678 160.867 51.7678C161.568 51.7678 162.28 51.5949 163.004 51.249C163.735 50.9032 164.348 50.3728 164.841 49.6578C165.343 48.943 165.594 48.032 165.594 46.9251ZM173.568 54.1662V36.4555H176.385V54.1662H173.568ZM175 33.5037C174.452 33.5037 173.978 33.3231 173.58 32.9618C173.19 32.6005 172.995 32.1662 172.995 31.6588C172.995 31.1515 173.19 30.7172 173.58 30.3559C173.978 29.9946 174.452 29.814 175 29.814C175.55 29.814 176.018 29.9946 176.408 30.3559C176.806 30.7172 177.005 31.1515 177.005 31.6588C177.005 32.1662 176.806 32.6005 176.408 32.9618C176.018 33.3231 175.55 33.5037 175 33.5037ZM184.36 30.5519V54.1662H181.543V30.5519H184.36ZM196.441 54.5352C194.912 54.5352 193.564 54.1623 192.395 53.4168C191.225 52.6633 190.31 51.6025 189.649 50.2343C188.989 48.8584 188.66 47.2326 188.66 45.357C188.66 43.4967 188.989 41.8824 189.649 40.5142C190.31 39.1459 191.229 38.089 192.407 37.3433C193.585 36.5977 194.944 36.2249 196.488 36.2249C197.681 36.2249 198.624 36.417 199.316 36.8014C200.017 37.1781 200.55 37.6085 200.916 38.0927C201.289 38.5694 201.58 38.9615 201.786 39.269H202.025V30.5519H204.843V54.1662H202.121V51.4451H201.786C201.58 51.7678 201.286 52.1753 200.904 52.6672C200.523 53.1515 199.977 53.5858 199.269 53.9702C198.56 54.3469 197.617 54.5352 196.441 54.5352ZM196.823 52.0907C197.952 52.0907 198.906 51.8063 199.686 51.2374C200.466 50.6609 201.059 49.8654 201.465 48.8507C201.87 47.8283 202.074 46.6483 202.074 45.3109C202.074 43.9887 201.874 42.8319 201.477 41.8402C201.079 40.8408 200.491 40.0645 199.711 39.511C198.931 38.9499 197.969 38.6692 196.823 38.6692C195.63 38.6692 194.635 38.9652 193.838 39.5571C193.05 40.1414 192.459 40.9369 192.06 41.944C191.671 42.9432 191.476 44.0655 191.476 45.3109C191.476 46.5715 191.674 47.7169 192.072 48.7468C192.479 49.7693 193.075 50.5841 193.862 51.1913C194.658 51.7909 195.645 52.0907 196.823 52.0907Z" fill="#373737"/>
</svg>
